<svg width="1318" height="1574" viewBox="0 0 1318 1574" fill="none" xmlns="http://www.w3.org/2000/svg">
<path d="M740.571 0C815.479 0 883.771 6.60289 945.461 19.8337C1007.15 33.0519 1060.02 54.7364 1104.08 84.8121C1148.14 114.925 1182.29 154.955 1206.52 204.902C1230.76 254.849 1242.88 316.526 1242.88 389.958C1242.88 469.28 1224.88 535.372 1188.9 588.232C1152.9 641.105 1099.68 684.424 1029.18 718.214C1126.11 746.126 1198.45 794.985 1246.19 864.716C1293.89 934.496 1317.81 1018.6 1317.81 1116.98C1317.81 1196.29 1302.39 1264.97 1271.53 1322.99C1240.7 1381.03 1199.18 1428.39 1147.07 1465.05C1094.93 1501.79 1035.44 1528.94 968.621 1546.6C901.386 1564.26 832.146 1573.14 762.631 1573.01H0.335083V0H740.571ZM696.514 636.716C758.204 636.716 808.864 622.034 848.531 592.647C888.186 563.284 908.007 515.538 908.007 449.446C908.007 412.743 901.404 382.617 888.186 359.119C874.967 335.634 857.347 317.239 835.313 304.045C813.278 290.815 787.942 281.673 759.304 276.496C729.849 271.294 699.989 268.716 670.078 268.793H346.224V636.728L696.514 636.716ZM716.336 1304.23C750.1 1304.23 782.427 1300.92 813.265 1294.32C844.104 1287.7 871.266 1276.68 894.789 1261.25C918.261 1245.86 936.995 1224.91 950.963 1198.46C964.907 1172.04 971.885 1138.26 971.885 1097.12C971.885 1016.37 949.1 958.719 903.592 924.192C858.047 889.676 797.834 872.406 722.938 872.406H346.224V1304.21L716.336 1304.23Z" fill="#C5700D"/>
</svg>
